<svg width="24" height="24" viewBox="0 0 24 24" fill="none" xmlns="http://www.w3.org/2000/svg">
<g clip-path="url(#clip0)">
<path d="M12.1974 5.4999C15.2346 5.49809 17.6985 3.03721 17.6985 0C14.6604 0 12.1974 2.46088 12.1974 5.4999Z" fill="black"/>
<path d="M17.2962 12.75C17.2962 10.8009 18.7033 9.14432 20.6691 8.51941C19.4241 6.97652 17.6166 6 15.597 6C14.2893 6 12.918 6.75598 12.918 6.75598C12.5217 6.97465 11.8734 6.97465 11.4765 6.75598C11.4765 6.75598 10.1055 6 8.79781 6C5.04388 6 1.99888 9.3573 2.00011 13.5C2.00011 19.2948 4.66203 24 7.9482 24C9.52138 24 11.4492 23.0898 11.4492 23.0898C11.8614 22.8948 12.5352 22.8948 12.9462 23.0898C12.9462 23.0898 14.8731 24 16.4463 24C18.9864 24 21.1464 21.1854 21.9999 17.2323C19.3686 17.0547 17.2962 15.1173 17.2962 12.75Z" fill="black"/>
</g>
<defs>
<clipPath id="clip0">
<rect width="24" height="24" fill="white"/>
</clipPath>
</defs>
</svg>
