<svg width="24" height="24" viewBox="0 0 24 24" fill="none" xmlns="http://www.w3.org/2000/svg">
<g clip-path="url(#clip0)">
<path d="M21.379 16.913C19.867 15.635 19 13.767 19 11.788V9C19 5.481 16.386 2.568 13 2.08V1C13 0.447 12.552 0 12 0C11.448 0 11 0.447 11 1V2.08C7.61299 2.568 4.99999 5.481 4.99999 9V11.788C4.99999 13.767 4.13299 15.635 2.61198 16.921C2.22298 17.254 1.99998 17.738 1.99998 18.25C1.99998 19.215 2.78498 20 3.74998 20H20.25C21.215 20 22 19.215 22 18.25C22 17.738 21.777 17.254 21.379 16.913Z" fill="#3D3D3D"/>
<path d="M12 24.6001C13.811 24.6001 15.326 23.3091 15.674 21.6001H8.32599C8.67399 23.3091 10.189 24.6001 12 24.6001Z" fill="#3D3D3D"/>
</g>
<defs>
<clipPath id="clip0">
<rect width="24" height="24" fill="white"/>
</clipPath>
</defs>
</svg>
