<svg width="33" height="31" viewBox="0 0 33 31" fill="none" xmlns="http://www.w3.org/2000/svg">
<path d="M29.3333 0H3.66667C1.64164 0 0 1.73479 0 3.875V21.3125C0 23.4527 1.64164 25.1875 3.66667 25.1875H12.2428L11.1429 29.0625H8.25C7.74377 29.0625 7.33333 29.4963 7.33333 30.0312C7.33333 30.5662 7.74377 31 8.25 31H24.75C25.2562 31 25.6667 30.5662 25.6667 30.0312C25.6667 29.4963 25.2562 29.0625 24.75 29.0625H21.8571L20.7572 25.1875H29.3333C31.3584 25.1875 33 23.4527 33 21.3125V3.875C33 1.73479 31.3584 0 29.3333 0ZM13.0571 29.0625L14.1571 25.1875H18.8429L19.9429 29.0625H13.0571ZM31.1667 21.3125C31.1667 22.3808 30.3442 23.25 29.3333 23.25H3.66667C2.65576 23.25 1.83333 22.3808 1.83333 21.3125V17.4375H31.1667V21.3125ZM31.1667 15.5H1.83333V3.875C1.83333 2.80665 2.65576 1.9375 3.66667 1.9375H29.3333C30.3442 1.9375 31.1667 2.80665 31.1667 3.875V15.5Z" fill="#222222"/>
</svg>
