<svg width="24" height="24" viewBox="0 0 24 24" fill="none" xmlns="http://www.w3.org/2000/svg">
<g clip-path="url(#clip0)">
<path d="M12 23.999C18.6274 23.999 24 18.6264 24 11.999C24 5.37161 18.6274 -0.000976562 12 -0.000976562C5.37258 -0.000976562 0 5.37161 0 11.999C0 18.6264 5.37258 23.999 12 23.999Z" fill="#007AB9"/>
<path d="M19.1699 12.9653V17.9127H16.3015V13.2969C16.3015 12.1379 15.8874 11.3465 14.8489 11.3465C14.0563 11.3465 13.5855 11.8793 13.3776 12.3953C13.3021 12.5797 13.2826 12.8357 13.2826 13.0943V17.9125H10.4141C10.4141 17.9125 10.4526 10.0949 10.4141 9.28564H13.2828V10.5081C13.2771 10.5178 13.2689 10.5272 13.2638 10.5364H13.2828V10.5081C13.664 9.92159 14.3438 9.08306 15.8679 9.08306C17.7551 9.08306 19.1699 10.316 19.1699 12.9653ZM7.41331 5.1272C6.4321 5.1272 5.79015 5.77128 5.79015 6.61752C5.79015 7.44578 6.41349 8.10848 7.37566 8.10848H7.39428C8.39474 8.10848 9.01679 7.44578 9.01679 6.61752C8.99775 5.77128 8.39474 5.1272 7.41331 5.1272ZM5.96064 17.9127H8.82812V9.28564H5.96064V17.9127Z" fill="#F1F2F2"/>
</g>
<defs>
<clipPath id="clip0">
<rect width="24" height="24" fill="white"/>
</clipPath>
</defs>
</svg>
