<svg width="20" height="20" viewBox="0 0 20 20" fill="none" xmlns="http://www.w3.org/2000/svg">
<path fill-rule="evenodd" clip-rule="evenodd" d="M4 0H16C18.2091 0 20 1.79086 20 4V16C20 18.2091 18.2091 20 16 20H4C1.79086 20 0 18.2091 0 16V4C0 1.79086 1.79086 0 4 0ZM4 2C2.89543 2 2 2.89543 2 4V16C2 17.1046 2.89543 18 4 18H16C17.1046 18 18 17.1046 18 16V4C18 2.89543 17.1046 2 16 2H4ZM5 6C4.44772 6 4 5.55228 4 5C4 4.44772 4.44772 4 5 4H15C15.5523 4 16 4.44772 16 5C16 5.55228 15.5523 6 15 6H5ZM5 11C4.44772 11 4 10.5523 4 10C4 9.44771 4.44772 9 5 9H15C15.5523 9 16 9.44771 16 10C16 10.5523 15.5523 11 15 11H5ZM5 16C4.44772 16 4 15.5523 4 15C4 14.4477 4.44772 14 5 14H10C10.5523 14 11 14.4477 11 15C11 15.5523 10.5523 16 10 16H5Z" fill="#3D3D3D"/>
</svg>
