<svg width="27" height="24" viewBox="0 0 27 24" fill="none" xmlns="http://www.w3.org/2000/svg">
<path d="M10.95 14.8423C10.95 16.0135 10.0099 16.9707 8.85955 16.9707C7.70924 16.9707 6.76909 16.0135 6.76909 14.8423C6.76909 13.6712 7.70924 12.714 8.85955 12.714C10.0099 12.714 10.95 13.6712 10.95 14.8423ZM17.7965 12.714C16.6462 12.714 15.7061 13.6712 15.7061 14.8423C15.7061 16.0135 16.6462 16.9707 17.7965 16.9707C18.9468 16.9707 19.887 16.0135 19.887 14.8423C19.887 13.6712 18.9579 12.714 17.7965 12.714ZM26.6892 14.8423C26.6892 15.6869 26.2026 16.4189 25.5058 16.7568V18.8176C25.5058 20.5518 24.1232 21.9482 22.4309 21.9482H15.5733C15.2747 22.6577 14.5779 23.1644 13.7705 23.1644H12.9188C12.1114 23.1644 11.4145 22.6689 11.1159 21.9482H4.25833C2.555 21.9482 1.18349 20.5405 1.18349 18.8176V16.768C0.486667 16.4302 0 15.6982 0 14.8536C0 14.009 0.486667 13.277 1.18349 12.9392V10.8784C1.18349 9.14415 2.56606 7.74775 4.25833 7.74775H12.2441V4.13288C11.5805 3.73874 11.1712 3.01802 11.1712 2.21847C11.1712 1.00225 12.1445 0 13.3502 0C14.5558 0 15.5291 0.990991 15.5291 2.21847C15.5291 3.01802 15.1199 3.72748 14.4562 4.13288V7.72523H22.442C24.1453 7.72523 25.5168 9.13288 25.5168 10.8559V12.9167C26.2026 13.2658 26.6892 13.9977 26.6892 14.8423ZM23.6586 10.8559C23.6586 10.1577 23.1056 9.5946 22.4199 9.5946H4.24727C3.56152 9.5946 3.00849 10.1577 3.00849 10.8559V12.9392V16.7342V18.8176C3.00849 19.5158 3.56152 20.0788 4.24727 20.0788H22.4199C23.1056 20.0788 23.6586 19.5158 23.6586 18.8176V16.7342V12.9392V10.8559Z" fill="#28B2E6"/>
</svg>
