<svg width="28" height="32" viewBox="0 0 28 32" fill="none" xmlns="http://www.w3.org/2000/svg">
<path d="M14 16C9.58156 16 6 12.4182 6 8C6 3.58181 9.58156 0 14 0C18.418 0 22 3.58181 22 8C22 12.4182 18.418 16 14 16ZM14 2C10.6915 2 8 4.6915 8 8C8 11.3084 10.6915 14 14 14C17.3085 14 20 11.3084 20 8C20 4.6915 17.3085 2 14 2ZM10.8335 19H17.1665C23.1494 19 28 23.8501 28 29.8333C28 31.0298 27.0298 32 25.8335 32H2.1665C0.970188 32 0 31.0298 0 29.8333C0 23.8501 4.85012 19 10.8335 19ZM2.1665 30H25.8335C25.9253 30 26 29.9252 26 29.8333C26 24.9625 22.0374 21 17.1665 21H10.8335C5.96263 21 2 24.9625 2 29.8333C2 29.9252 2.07469 30 2.1665 30Z" fill="#222222"/>
</svg>
